<svg xmlns="http://www.w3.org/2000/svg" width="512" height="512" viewBox="0 0 100 100">
  <rect width="100" height="100" rx="20" fill="#1f1826"></rect>
  <path d="M58.166 87L58.166 87Q45.802 87 38.512 82.433Q31.223 77.865 31.223 69.653L31.223 69.653Q31.223 67.9 31.592 65.963L31.592 65.963L42.849 65.963Q42.665 67.254 42.665 68.085L42.665 68.085Q42.665 73.067 46.909 75.466Q51.153 77.865 58.166 77.865L58.166 77.865Q65.455 77.865 68.915 74.313Q72.375 70.761 72.375 65.87L72.375 65.87Q72.375 61.81 70.161 58.858Q67.946 55.905 63.241 55.905L63.241 55.905L61.303 55.905L61.303 46.771L64.809 46.771Q69.146 46.771 71.729 43.264Q74.313 39.758 74.313 34.222L74.313 34.222Q74.313 28.87 72.283 25.502Q70.253 22.135 66.101 22.135L66.101 22.135Q61.949 22.135 59.642 25.133Q57.335 28.132 57.335 34.13L57.335 34.13L57.335 36.621Q57.335 43.357 54.613 48.524Q51.892 53.691 47.001 56.597Q42.111 59.504 35.56 59.504L35.56 59.504Q29.101 59.504 24.257 56.597Q19.413 53.691 16.645 48.431Q13.877 43.172 13.877 36.16L13.877 36.16Q13.877 29.239 16.599 24.026Q19.32 18.813 24.165 15.906Q29.009 13 35.375 13L35.375 13Q40.635 13 45.017 15.491Q49.4 17.983 51.338 22.965L51.338 22.965L51.892 22.965Q53.645 18.352 57.474 15.676Q61.303 13 67.208 13L67.208 13Q73.206 13 77.404 15.768Q81.602 18.536 83.863 22.965Q86.123 27.394 86.123 32.284L86.123 32.284Q86.123 40.865 82.571 45.248Q79.019 49.631 73.113 50.923L73.113 50.923L73.113 51.292Q78.557 52.584 81.464 56.643Q84.37 60.703 84.37 66.332L84.37 66.332Q84.37 72.237 81.279 76.897Q78.188 81.556 72.329 84.278Q66.47 87 58.166 87ZM35.744 50.369L35.744 50.369Q40.911 50.369 43.31 46.217Q45.709 42.065 45.709 36.16L45.709 36.16Q45.709 30.254 43.31 26.195Q40.911 22.135 35.652 22.135L35.652 22.135Q30.393 22.135 27.948 26.195Q25.502 30.254 25.502 36.16L25.502 36.16Q25.502 42.065 27.948 46.217Q30.393 50.369 35.744 50.369Z" fill="#e6a878" fill-rule="evenodd"></path>
</svg>