<svg xmlns="http://www.w3.org/2000/svg" width="512" height="512" viewBox="0 0 100 100">
  <rect width="100" height="100" rx="20" fill="#29251e"></rect>
  <path d="M32.35 13.6L32.44 13.5L38 13.5L38.2 13.7L39.19 13.7L39.39 13.9L40.18 13.9L40.38 14.1L40.78 14.1L40.97 14.29L41.37 14.29L41.57 14.49L42.56 14.69L43.95 15.48L44.35 15.48L44.54 15.68L45.14 15.88L45.54 16.28L45.74 16.28L46.13 16.67L46.33 16.67L46.93 17.27L47.12 17.27L49.01 19.15L49.01 19.35L49.6 19.95L49.6 20.15L50.4 21.14L50.4 21.34L51.19 22.72L51.29 23.22L51.88 23.22L52.18 22.92L52.18 22.53L52.38 22.33L52.98 20.94L53.37 20.54L53.37 20.34L53.77 19.95L53.77 19.75L54.17 19.35L54.17 19.15L55.36 17.96L55.36 17.76L55.85 17.27L56.05 17.27L57.04 16.28L57.24 16.28L58.23 15.48L58.43 15.48L60.22 14.49L60.61 14.49L60.81 14.29L61.21 14.29L61.41 14.1L61.8 14.1L62 13.9L62.79 13.9L62.99 13.7L63.99 13.7L64.18 13.5L69.74 13.5L69.94 13.7L71.13 13.7L71.32 13.9L71.92 13.9L72.12 14.1L72.71 14.1L72.91 14.29L73.9 14.49L74.5 14.89L74.9 14.89L75.09 15.09L76.09 15.48L76.48 15.88L77.08 16.08L77.67 16.67L77.87 16.67L78.47 17.27L78.66 17.27L81.34 19.95L81.34 20.15L82.14 20.94L82.14 21.14L82.53 21.53L82.53 21.73L83.13 22.53L83.13 22.72L84.12 24.51L84.12 24.91L84.52 25.5L84.52 25.9L84.71 26.1L84.71 26.49L84.91 26.69L84.91 27.29L85.11 27.49L85.11 28.08L85.31 28.28L85.31 29.27L85.51 29.47L85.51 31.25L85.71 31.45L85.71 34.23L85.51 34.43L85.51 36.41L85.31 36.61L85.31 37.8L85.11 38L85.11 38.59L84.91 38.79L84.91 39.59L84.71 39.78L84.71 40.18L84.52 40.38L84.32 41.37L83.92 41.97L83.92 42.36L83.72 42.56L83.33 43.55L82.93 43.95L82.93 44.15L82.53 44.54L82.53 44.74L82.14 45.14L82.14 45.34L80.45 47.22L80.25 47.22L79.46 48.02L79.26 48.02L78.07 49.01L77.87 49.01L76.09 50L75.09 50.2L74.5 50.6L73.9 50.6L73.71 50.79L73.11 50.79L72.81 51.09L72.81 51.29L73.31 51.39L73.51 51.59L73.9 51.59L74.1 51.79L74.5 51.79L74.7 51.98L75.09 51.98L75.69 52.38L76.09 52.38L76.48 52.78L76.68 52.78L76.88 52.98L77.47 53.17L77.87 53.57L78.07 53.57L78.66 54.17L78.86 54.17L80.75 56.05L80.75 56.25L81.34 56.84L81.34 57.04L82.14 58.03L82.14 58.23L82.73 59.22L82.93 60.22L83.33 60.81L83.33 61.41L83.52 61.6L83.52 62.2L83.72 62.4L83.72 63.59L83.92 63.79L83.92 68.55L83.72 68.75L83.72 69.74L83.52 69.94L83.52 70.73L83.33 70.93L83.33 71.52L83.13 71.72L82.93 72.71L82.73 72.91L82.73 73.11L82.53 73.31L82.53 73.71L82.33 73.9L82.33 74.1L82.14 74.3L81.54 75.69L81.14 76.09L80.95 76.68L80.35 77.28L80.35 77.47L79.76 78.07L79.76 78.27L77.08 80.95L76.88 80.95L76.28 81.54L76.09 81.54L74.9 82.53L73.9 82.93L73.51 83.33L73.31 83.33L71.92 84.12L71.52 84.12L71.32 84.32L71.13 84.32L70.93 84.52L70.53 84.52L69.94 84.91L69.54 84.91L69.34 85.11L68.75 85.11L68.55 85.31L68.15 85.31L67.95 85.51L67.36 85.51L67.16 85.71L66.37 85.71L66.17 85.9L65.37 85.9L65.18 86.1L64.18 86.1L63.99 86.3L62.4 86.3L62.2 86.5L53.87 86.5L53.67 86.3L51.88 86.3L51.69 86.1L50.3 86.1L50.1 85.9L49.31 85.9L49.11 85.71L48.12 85.71L47.92 85.51L47.12 85.51L46.93 85.31L46.53 85.31L46.33 85.11L45.74 85.11L45.54 84.91L45.14 84.91L44.94 84.71L44.35 84.71L44.15 84.52L43.75 84.52L43.16 84.12L42.76 84.12L42.16 83.72L41.77 83.72L41.57 83.52L41.37 83.52L41.17 83.33L39.78 82.73L39.39 82.33L38.79 82.14L38.4 81.74L38.2 81.74L37.8 81.34L37.6 81.34L37.01 80.75L36.81 80.75L34.53 78.47L34.53 78.27L33.93 77.67L33.93 77.47L33.14 76.48L33.14 76.28L32.54 75.29L32.54 74.9L32.15 74.3L32.15 73.71L31.95 73.51L31.95 72.91L31.75 72.71L31.75 71.72L31.55 71.52L31.55 67.56L31.75 67.36L31.75 66.17L32.05 65.87L42.76 65.87L42.86 65.97L42.86 67.16L42.66 67.36L42.66 67.95L42.86 68.15L42.86 69.74L43.06 69.94L43.06 70.53L43.26 70.73L43.26 71.13L43.45 71.32L43.85 72.32L44.25 72.71L44.25 72.91L45.93 74.6L46.13 74.6L46.73 75.19L46.93 75.19L48.71 76.18L49.11 76.18L49.31 76.38L49.7 76.38L49.9 76.58L50.3 76.58L50.5 76.78L51.09 76.78L51.29 76.98L52.08 76.98L52.28 77.18L53.27 77.18L53.47 77.38L55.26 77.38L55.46 77.57L60.22 77.57L60.41 77.38L61.6 77.38L61.8 77.18L62.79 77.18L62.99 76.98L63.39 76.98L63.59 76.78L64.18 76.78L64.78 76.38L65.18 76.38L65.37 76.18L66.76 75.59L67.95 74.6L68.15 74.6L69.84 72.91L69.84 72.71L70.43 72.12L70.43 71.92L71.42 70.13L71.42 69.74L71.62 69.54L71.62 69.14L71.82 68.94L71.82 68.15L72.02 67.95L72.02 66.56L72.22 66.37L72.22 64.98L72.02 64.78L72.02 63.39L71.82 63.19L71.82 62.6L71.62 62.4L71.62 61.8L71.23 61.21L71.23 60.81L71.03 60.61L70.63 59.62L70.04 59.03L70.04 58.83L68.55 57.34L68.35 57.34L67.95 56.94L67.75 56.94L66.76 56.35L66.37 56.35L66.17 56.15L65.57 56.15L65.37 55.95L63.99 55.95L63.79 55.75L61.21 55.75L61.11 55.65L61.11 46.93L61.21 46.83L65.97 46.83L66.17 46.63L66.76 46.63L66.96 46.43L67.56 46.43L67.75 46.23L69.14 45.64L69.54 45.24L69.74 45.24L71.62 43.35L71.62 43.16L72.42 42.16L72.42 41.97L72.61 41.77L72.61 41.37L73.21 40.38L73.21 39.98L73.41 39.78L73.41 39.19L73.61 38.99L73.61 38.4L73.8 38.2L73.8 37.21L74 37.01L74 31.65L73.8 31.45L73.8 30.46L73.61 30.26L73.61 29.47L73.41 29.27L73.41 28.87L73.21 28.68L73.21 28.08L72.81 27.49L72.81 27.09L72.61 26.89L72.42 26.29L72.02 25.9L72.02 25.7L71.62 25.3L71.62 25.1L70.13 23.62L69.94 23.62L69.54 23.22L69.34 23.22L68.75 22.82L68.35 22.82L68.15 22.63L67.56 22.63L67.36 22.43L64.78 22.43L64.58 22.63L63.79 22.63L63.59 22.82L62.99 22.82L62.79 23.02L61.41 23.62L61.01 24.01L60.81 24.01L59.72 25.1L59.72 25.3L59.13 25.9L58.93 26.49L58.53 26.89L58.53 27.29L58.13 27.88L58.13 28.28L57.93 28.48L57.93 28.87L57.74 29.07L57.74 29.87L57.54 30.06L57.54 31.06L57.34 31.25L57.34 36.81L57.14 37.01L57.14 39.98L56.94 40.18L56.94 41.57L56.74 41.77L56.74 42.36L56.55 42.56L56.55 43.35L56.35 43.55L56.35 44.15L56.15 44.35L56.15 44.74L55.95 44.94L55.75 45.93L55.36 46.53L55.36 46.93L54.96 47.52L54.96 47.92L54.56 48.31L53.97 49.7L53.57 50.1L53.57 50.3L53.17 50.69L53.17 50.89L52.78 51.29L52.78 51.49L51.79 52.48L51.79 52.68L49.7 54.76L49.5 54.76L48.12 55.95L47.52 56.15L47.12 56.55L46.53 56.74L46.13 57.14L45.74 57.14L44.35 57.93L43.35 58.13L42.76 58.53L42.16 58.53L41.97 58.73L41.37 58.73L41.17 58.93L40.38 58.93L40.18 59.13L38.99 59.13L38.79 59.32L32.84 59.32L32.64 59.13L31.45 59.13L31.25 58.93L30.66 58.93L30.46 58.73L29.87 58.73L29.67 58.53L29.07 58.53L28.87 58.33L28.48 58.33L27.88 57.93L26.89 57.74L26.69 57.54L26.49 57.54L26.29 57.34L24.91 56.74L23.91 55.95L23.32 55.75L21.34 53.97L21.14 53.97L18.86 51.49L18.86 51.29L17.67 49.7L17.27 48.71L16.87 48.31L16.87 48.12L16.48 47.52L16.48 47.12L16.28 46.93L16.28 46.73L16.08 46.53L16.08 46.13L15.68 45.54L15.68 44.94L15.48 44.74L15.48 44.35L15.29 44.15L15.29 43.75L15.09 43.55L15.09 42.76L14.89 42.56L14.89 41.77L14.69 41.57L14.69 40.38L14.49 40.18L14.49 38.2L14.29 38L14.29 34.43L14.49 34.23L14.49 32.44L14.69 32.25L14.69 31.06L14.89 30.86L14.89 30.06L15.09 29.87L15.09 29.27L15.29 29.07L15.29 28.48L15.48 28.28L15.48 27.88L15.68 27.68L15.88 26.69L16.28 26.1L16.28 25.7L16.48 25.5L17.07 24.11L17.47 23.72L17.67 23.12L18.06 22.72L18.26 22.13L19.65 20.54L19.65 20.34L22.13 17.86L22.33 17.86L22.92 17.27L23.12 17.27L24.71 16.08L24.91 16.08L27.09 14.89L27.49 14.89L28.08 14.49L28.68 14.49L28.87 14.29L29.27 14.29L29.47 14.1L30.06 14.1L30.26 13.9L31.06 13.9L31.25 13.7L32.25 13.7L32.35 13.6Z M35.12 22.53L35.22 22.43L36.61 22.43L36.81 22.63L38 22.63L38.2 22.82L38.99 22.82L39.98 23.42L40.38 23.42L40.97 24.01L41.17 24.01L43.06 25.9L43.06 26.1L43.45 26.49L43.65 27.09L44.05 27.49L44.05 27.68L44.25 27.88L44.25 28.28L44.45 28.48L44.45 28.68L44.64 28.87L44.64 29.27L44.84 29.47L44.84 30.06L45.04 30.26L45.04 30.66L45.24 30.86L45.24 31.65L45.44 31.85L45.44 32.84L45.64 33.04L45.64 35.22L45.83 35.42L45.83 37.4L45.64 37.6L45.64 39.78L45.44 39.98L45.44 40.97L45.24 41.17L45.24 41.97L45.04 42.16L45.04 42.56L44.84 42.76L44.84 43.35L44.64 43.55L44.64 43.95L44.25 44.54L44.25 44.94L43.85 45.34L43.45 46.33L42.86 46.93L42.86 47.12L41.17 48.81L40.97 48.81L40.58 49.21L40.38 49.21L38.99 50L38.4 50L38.2 50.2L37.6 50.2L37.4 50.4L34.23 50.4L34.03 50.2L33.44 50.2L33.24 50L32.64 50L32.44 49.8L32.25 49.8L32.05 49.6L31.65 49.6L30.86 49.01L30.66 49.01L28.58 46.93L28.58 46.73L28.18 46.33L27.98 45.74L27.39 44.94L27.39 44.54L26.99 43.95L26.99 43.55L26.79 43.35L26.79 42.96L26.59 42.76L26.59 42.16L26.39 41.97L26.39 41.37L26.2 41.17L26.2 40.38L26 40.18L26 38.59L25.8 38.4L25.8 34.03L26 33.83L26 32.44L26.2 32.25L26.2 31.45L26.39 31.25L26.39 30.46L26.59 30.26L26.59 29.87L26.79 29.67L26.99 28.68L27.39 28.08L27.39 27.68L27.78 27.29L27.78 27.09L28.38 26.29L28.38 26.1L30.46 24.01L30.66 24.01L31.06 23.62L31.25 23.62L32.25 23.02L32.64 23.02L32.84 22.82L33.44 22.82L33.63 22.63L35.02 22.63L35.12 22.53Z" fill="#9fc6a6" fill-rule="evenodd"></path>
</svg>
